<svg width="36" height="20" viewBox="0 0 36 20" fill="none" xmlns="http://www.w3.org/2000/svg">
<mask id="path-1-inside-1_1_1257" fill="white">
<path d="M0 0H36V20H0V0Z"/>
</mask>
<path d="M36 0H35V20H36H37V0H36Z" fill="#394867" mask="url(#path-1-inside-1_1_1257)"/>
<path d="M17.1566 3.68683H13.8169C12.4808 3.68683 11.8128 3.68683 11.3025 3.94684C10.8537 4.17554 10.4887 4.54048 10.26 4.98935C10 5.49964 10 6.16766 10 7.50368V14.1831C10 15.5192 10 16.1872 10.26 16.6975C10.4887 17.1464 10.8537 17.5113 11.3025 17.74C11.8128 18 12.4808 18 13.8169 18H20.4963C21.8324 18 22.5003 18 23.0107 17.74C23.4596 17.5113 23.8245 17.1464 24.0532 16.6975C24.3132 16.1872 24.3132 15.5192 24.3132 14.1831V10.8434M23.1204 2.49405C23.7791 1.83531 24.8472 1.83531 25.506 2.49406C26.1647 3.1528 26.1647 4.22085 25.506 4.87959L17.9019 12.4837C17.6269 12.7587 17.4893 12.8962 17.3288 12.9946C17.1865 13.0818 17.0314 13.1461 16.8691 13.185C16.6861 13.2289 16.4916 13.2289 16.1026 13.2289H14.771V11.8974C14.771 11.5084 14.771 11.3139 14.815 11.1309C14.8539 10.9686 14.9182 10.8135 15.0054 10.6712C15.1037 10.5107 19.3153 6.29918 19.5904 6.02413" stroke="#394867" stroke-width="1.5" stroke-linecap="round" stroke-linejoin="round"/>
</svg>
