<svg width="36" height="20" viewBox="0 0 36 20" fill="none" xmlns="http://www.w3.org/2000/svg">
<mask id="path-1-inside-1_1_1244" fill="white">
<path d="M0 0H36V20H0V0Z"/>
</mask>
<path d="M36 0H35V20H36H37V0H36Z" fill="#394867" mask="url(#path-1-inside-1_1_1244)"/>
<path d="M10.3838 5.31659C10.3633 4.9348 10.0371 4.64191 9.65529 4.6624C9.27344 4.6829 8.98052 5.00902 9.00101 5.3908L10.3838 5.31659ZM11.2755 1.77801C11.0121 2.05523 11.0234 2.49341 11.3006 2.75672C11.5779 3.02003 12.0161 3.00876 12.2795 2.73154L11.2755 1.77801ZM16.7651 17.2114C17.0888 17.4148 17.5163 17.3174 17.7197 16.9937C17.9232 16.67 17.8256 16.2426 17.5019 16.0391L16.7651 17.2114ZM20.8722 17.4386C20.498 17.3602 20.131 17.6001 20.0526 17.9743C19.9742 18.3485 20.2141 18.7154 20.5884 18.7938L20.8722 17.4386ZM21.363 13.2713L21.7834 12.8287L20.7794 11.8752L20.3589 12.3178L21.363 13.2713ZM23.167 12.6424L24.9307 13.6574L25.6215 12.4575L23.8578 11.4424L23.167 12.6424ZM25.2711 15.7619L23.9597 17.1424L24.9638 18.0959L26.2752 16.7155L25.2711 15.7619ZM14.6372 13.6544C11.0588 9.88754 10.4586 6.71022 10.3838 5.31659L9.00101 5.3908C9.09264 7.09771 9.8175 10.5914 13.6332 14.6079L14.6372 13.6544ZM15.9069 7.52806L16.1717 7.24934L15.1677 6.29581L14.9029 6.57453L15.9069 7.52806ZM16.3797 3.77916L15.2156 2.13292L14.0849 2.93225L15.249 4.57847L16.3797 3.77916ZM15.4049 7.05129C14.9029 6.57453 14.9022 6.5752 14.9016 6.57588C14.9014 6.57612 14.9007 6.5768 14.9003 6.57726C14.8994 6.5782 14.8985 6.57915 14.8976 6.58013C14.8958 6.58209 14.8939 6.58413 14.892 6.58626C14.8881 6.59052 14.884 6.59512 14.8797 6.60009C14.871 6.61002 14.8615 6.62137 14.8514 6.6342C14.8311 6.65984 14.8082 6.69134 14.7841 6.72897C14.7358 6.80444 14.6834 6.90382 14.639 7.02845C14.5488 7.28189 14.4997 7.61751 14.5611 8.03664C14.6818 8.86011 15.2214 9.96748 16.6315 11.4517L17.6355 10.4982C16.3175 9.11081 15.9929 8.25635 15.9313 7.83591C15.9015 7.63307 15.9317 7.52619 15.9437 7.49263C15.9504 7.47377 15.9548 7.46852 15.9505 7.47524C15.9484 7.47849 15.9443 7.4846 15.9373 7.49343C15.9338 7.49784 15.9296 7.50293 15.9245 7.50871C15.922 7.51159 15.9193 7.51465 15.9164 7.51788C15.9149 7.51949 15.9134 7.52114 15.9118 7.52284C15.911 7.52369 15.9102 7.52455 15.9094 7.52542C15.909 7.52585 15.9084 7.52652 15.9082 7.52673C15.9075 7.52739 15.9069 7.52806 15.4049 7.05129ZM16.6315 11.4517C18.0373 12.9316 19.0992 13.5134 19.9093 13.645C20.3249 13.7124 20.6614 13.6585 20.9162 13.5581C21.0407 13.509 21.1393 13.4513 21.2132 13.3989C21.2501 13.3727 21.2808 13.3478 21.3057 13.3261C21.318 13.3153 21.329 13.3051 21.3385 13.2959C21.3433 13.2913 21.3477 13.2869 21.3517 13.2829C21.3538 13.2808 21.3558 13.2788 21.3576 13.2769C21.3586 13.2759 21.3595 13.275 21.3603 13.2741C21.3608 13.2736 21.3614 13.2729 21.3617 13.2727C21.3623 13.272 21.363 13.2713 20.861 12.7946C20.3589 12.3178 20.3596 12.3172 20.3601 12.3165C20.3604 12.3162 20.361 12.3156 20.3614 12.3151C20.3623 12.3143 20.3631 12.3135 20.3638 12.3126C20.3655 12.311 20.3671 12.3093 20.3686 12.3078C20.3717 12.3047 20.3746 12.3018 20.3774 12.2991C20.383 12.2937 20.388 12.2891 20.3924 12.2852C20.4013 12.2775 20.4079 12.2725 20.4121 12.2695C20.4207 12.2634 20.4199 12.2655 20.408 12.2701C20.3902 12.2771 20.3064 12.3067 20.1312 12.2783C19.7596 12.2179 18.9576 11.89 17.6355 10.4982L16.6315 11.4517ZM15.2156 2.13292C14.2799 0.80967 12.4074 0.586423 11.2755 1.77801L12.2795 2.73154C12.7622 2.22345 13.6119 2.26337 14.0849 2.93225L15.2156 2.13292ZM23.9597 17.1424C23.7021 17.4136 23.4326 17.5588 23.1706 17.5847L23.3067 18.9626C23.9963 18.8945 24.5544 18.5267 24.9638 18.0959L23.9597 17.1424ZM16.1717 7.24934C17.0649 6.30905 17.1282 4.83757 16.3797 3.77916L15.249 4.57847C15.6387 5.12959 15.579 5.86284 15.1677 6.29581L16.1717 7.24934ZM24.9307 13.6574C25.6886 14.0936 25.8368 15.1664 25.2711 15.7619L26.2752 16.7155C27.4799 15.4473 27.129 13.325 25.6215 12.4575L24.9307 13.6574ZM21.7834 12.8287C22.1392 12.4542 22.6937 12.37 23.167 12.6424L23.8578 11.4424C22.8437 10.8588 21.586 11.0261 20.7794 11.8752L21.7834 12.8287ZM17.5019 16.0391C16.5937 15.4685 15.6271 14.6964 14.6372 13.6544L13.6332 14.6079C14.6986 15.7294 15.7541 16.5762 16.7651 17.2114L17.5019 16.0391ZM23.1706 17.5847C22.6661 17.6345 21.8676 17.647 20.8722 17.4386L20.5884 18.7938C21.741 19.0351 22.6828 19.0242 23.3067 18.9626L23.1706 17.5847Z" fill="#394867"/>
</svg>
