<svg width="22" height="22" viewBox="0 0 22 22" fill="none" xmlns="http://www.w3.org/2000/svg">
<path d="M1.5 10.5V6.5C1.5 5.39543 2.39543 4.5 3.5 4.5H10.5M1.52693 18.829C1.68385 19.777 2.5075 20.5 3.5 20.5H15.5C16.6046 20.5 17.5 19.6046 17.5 18.5V14.6901M1.52693 18.829C1.50922 18.722 1.5 18.6121 1.5 18.5V15.5M1.52693 18.829L5.34762 15.0083C6.02765 14.4133 7.02219 14.3481 7.774 14.8494L8.2832 15.1888C9.0078 15.6719 9.9619 15.6305 10.642 15.0864L13.2901 12.9679C13.9651 12.4279 14.9053 12.3855 15.6228 12.8484C15.7023 12.8997 15.7731 12.9632 15.84 13.0301L17.5 14.6901M17.5 14.6901L17.5 11.5M17.5 7.5V4.5M17.5 1.5V4.5M17.5 4.5H14.5H20.5M8.5 9.5C8.5 10.6046 7.6046 11.5 6.5 11.5C5.39543 11.5 4.5 10.6046 4.5 9.5C4.5 8.39543 5.39543 7.5 6.5 7.5C7.6046 7.5 8.5 8.39543 8.5 9.5Z" stroke="#394867" stroke-width="2" stroke-linecap="round" stroke-linejoin="round"/>
</svg>
