<svg width="36" height="20" viewBox="0 0 36 20" fill="none" xmlns="http://www.w3.org/2000/svg">
<mask id="path-1-inside-1_1_1236" fill="white">
<path d="M0 0H36V20H0V0Z"/>
</mask>
<path d="M36 0H35V20H36H37V0H36Z" fill="#394867" mask="url(#path-1-inside-1_1_1236)"/>
<path d="M13.8334 10C15.2141 10 16.3334 8.88071 16.3334 7.5C16.3334 6.11929 15.2141 5 13.8334 5C12.4527 5 11.3334 6.11929 11.3334 7.5C11.3334 8.88071 12.4527 10 13.8334 10Z" stroke="#394867" stroke-width="1.5"/>
<path d="M14.6667 11.6667C14.6667 11.6667 14.25 11.6667 13 11.6667C11.75 11.6667 8.83337 12.5 8.83337 14.5834C8.83337 16.1942 8.83337 17.5 12.1667 17.5C14.6667 17.5 15.5 17.5 15.5 17.5" stroke="#394867" stroke-width="1.5" stroke-linecap="round"/>
<path d="M21.75 9.16665C23.3609 9.16665 24.6667 7.86081 24.6667 6.24998C24.6667 4.63915 23.3609 3.33331 21.75 3.33331C20.1392 3.33331 18.8334 4.63915 18.8334 6.24998C18.8334 7.86081 20.1392 9.16665 21.75 9.16665Z" stroke="#394867" stroke-width="1.5"/>
<path d="M27.165 14.537C27.1667 14.4154 27.1667 14.2918 27.1667 14.1666C27.1667 12.3257 24.7416 10.8333 21.75 10.8333C18.7585 10.8333 16.3334 12.3257 16.3334 14.1666C16.3334 16.0076 16.3334 17.5 21.75 17.5C23.2606 17.5 24.3499 17.3839 25.1355 17.1766" stroke="#394867" stroke-width="1.5" stroke-linecap="round"/>
</svg>
