<svg width="36" height="20" viewBox="0 0 36 20" fill="none" xmlns="http://www.w3.org/2000/svg">
<mask id="path-1-inside-1_1_1262" fill="white">
<path d="M0 0H36V20H0V0Z"/>
</mask>
<path d="M36 0H35V20H36H37V0H36Z" fill="white" mask="url(#path-1-inside-1_1_1262)"/>
<g clip-path="url(#clip0_1_1262)">
<path d="M15.6276 4.507C16.6831 2.61346 17.2109 1.66669 18 1.66669C18.789 1.66669 19.3168 2.61345 20.3723 4.507L20.6454 4.99688C20.9454 5.53496 21.0953 5.80401 21.3292 5.98153C21.563 6.15905 21.8542 6.22494 22.4367 6.35673L22.967 6.47671C25.0167 6.94049 26.0416 7.17237 26.2855 7.95646C26.5293 8.74052 25.8306 9.5576 24.4332 11.1916L24.0717 11.6144C23.6746 12.0787 23.476 12.3109 23.3867 12.5981C23.2975 12.8854 23.3275 13.1951 23.3875 13.8147L23.4421 14.3787C23.6534 16.5589 23.759 17.6489 23.1207 18.1335C22.4823 18.6181 21.5227 18.1763 19.6035 17.2927L19.107 17.064C18.5617 16.8129 18.289 16.6874 18 16.6874C17.7109 16.6874 17.4382 16.8129 16.8929 17.064L16.3964 17.2927C14.4772 18.1763 13.5176 18.6181 12.8793 18.1335C12.2409 17.6489 12.3465 16.5589 12.5578 14.3787L12.6124 13.8147C12.6725 13.1951 12.7025 12.8854 12.6132 12.5981C12.5239 12.3109 12.3253 12.0787 11.9282 11.6144L11.5667 11.1916C10.1693 9.5576 9.47064 8.74052 9.71448 7.95646C9.95831 7.17237 10.9832 6.94049 13.0329 6.47671L13.5632 6.35673C14.1457 6.22494 14.4369 6.15905 14.6707 5.98153C14.9046 5.80401 15.0546 5.53497 15.3545 4.99688L15.6276 4.507Z" stroke="white" stroke-width="1.5"/>
</g>
<defs>
<clipPath id="clip0_1_1262">
<rect width="20" height="20" fill="white" transform="translate(8)"/>
</clipPath>
</defs>
</svg>
