<svg width="20" height="20" viewBox="0 0 20 20" fill="none" xmlns="http://www.w3.org/2000/svg">
<g clip-path="url(#clip0_1_640)">
<path d="M5.03279 6.47671C2.98306 6.94049 1.95819 7.17237 1.71436 7.95646C1.47052 8.74052 2.16921 9.5576 3.56659 11.1916L3.92811 11.6144C4.3252 12.0787 4.52374 12.3109 4.61306 12.5981C4.70238 12.8854 4.67236 13.1951 4.61232 13.8147L4.55767 14.3787C4.34641 16.5589 4.24077 17.6489 4.87913 18.1335C5.51749 18.6181 6.47707 18.1763 8.39626 17.2927L8.89276 17.064C9.43809 16.8129 9.71076 16.6874 9.99984 16.6874C10.2889 16.6874 10.5616 16.8129 11.1069 17.064L11.6034 17.2927C13.5226 18.1763 14.4822 18.6181 15.1206 18.1335C15.7589 17.6489 15.6533 16.5589 15.442 14.3787M16.4331 11.1916C17.8305 9.5576 18.5292 8.74052 18.2853 7.95646C18.0415 7.17237 17.0166 6.94049 14.9669 6.47671L14.4366 6.35673C13.8541 6.22494 13.5629 6.15905 13.3291 5.98153C13.0952 5.80401 12.9453 5.53496 12.6453 4.99688L12.3722 4.507C11.3167 2.61345 10.7889 1.66669 9.99984 1.66669C9.21076 1.66669 8.68301 2.61346 7.62747 4.507" stroke="#394867" stroke-width="1.5" stroke-linecap="round"/>
</g>
<defs>
<clipPath id="clip0_1_640">
<rect width="20" height="20" fill="white"/>
</clipPath>
</defs>
</svg>
