<svg width="36" height="20" viewBox="0 0 36 20" fill="none" xmlns="http://www.w3.org/2000/svg">
<mask id="path-1-inside-1_1_1230" fill="white">
<path d="M0 0H36V20H0V0Z"/>
</mask>
<path d="M36 0H35V20H36H37V0H36Z" fill="#394867" mask="url(#path-1-inside-1_1_1230)"/>
<path d="M18 8.33335C19.8409 8.33335 21.3333 6.84097 21.3333 5.00002C21.3333 3.15907 19.8409 1.66669 18 1.66669C16.159 1.66669 14.6666 3.15907 14.6666 5.00002C14.6666 6.84097 16.159 8.33335 18 8.33335Z" stroke="#394867" stroke-width="1.5"/>
<path d="M24.6646 15C24.6667 14.8631 24.6667 14.7241 24.6667 14.5833C24.6667 12.5122 21.682 10.8333 18 10.8333C14.3181 10.8333 11.3334 12.5122 11.3334 14.5833C11.3334 16.6544 11.3334 18.3333 18 18.3333C19.8592 18.3333 21.1999 18.2027 22.1667 17.9695" stroke="#394867" stroke-width="1.5" stroke-linecap="round"/>
</svg>
